<svg width="141" height="22" viewBox="0 0 141 22" fill="none" xmlns="http://www.w3.org/2000/svg">
<g clip-path="url(#clip0_1_464)">
<path d="M38.7541 16.847C41.6061 16.847 43.9061 15.225 44.7061 12.631H40.8091C40.4331 13.296 39.6691 13.697 38.7541 13.697C37.5171 13.697 36.6891 13.023 36.4341 11.719H44.8741C44.9251 11.367 44.9551 11.025 44.9551 10.682C44.9551 7.347 42.4181 4.732 38.7541 4.732C35.1861 4.732 32.5791 7.296 32.5791 10.781C32.5791 14.254 35.2071 16.847 38.7541 16.847ZM41.0981 9.55H36.5021C36.8191 8.421 37.6121 7.801 38.7541 7.801C39.9351 7.801 40.7541 8.414 41.0981 9.551V9.55ZM52.0441 16.846C53.3641 16.846 54.5441 16.412 55.4741 15.658L55.8101 16.462H58.8371V5.093H55.9181L55.5181 5.973C54.5781 5.198 53.3831 4.751 52.0441 4.751C48.5681 4.751 46.0831 7.256 46.0831 10.777C46.0831 14.31 48.5681 16.847 52.0441 16.847V16.846ZM52.5681 13.379C51.1011 13.379 50.0231 12.271 50.0231 10.786C50.0231 9.311 51.0921 8.203 52.5681 8.203C54.0341 8.203 55.1121 9.311 55.1121 10.786C55.1121 12.271 54.0341 13.379 52.5681 13.379ZM65.6911 16.846C68.7111 16.846 70.7161 15.292 70.7161 12.916C70.7161 10.033 68.3291 9.66 66.5331 9.341C65.4531 9.148 64.5831 8.997 64.5831 8.351C64.5831 7.824 65.0051 7.513 65.6331 7.513C66.3431 7.513 66.8301 7.85 66.8301 8.576H70.4971C70.4531 6.273 68.5771 4.733 65.6811 4.733C62.7691 4.733 60.8271 6.203 60.8271 8.483C60.8271 11.24 63.1641 11.772 64.9271 12.057C66.0191 12.238 66.8791 12.425 66.8791 13.081C66.8791 13.668 66.3361 13.961 65.7631 13.961C65.0211 13.961 64.4431 13.578 64.4431 12.747H60.6731C60.7091 15.21 62.5921 16.847 65.6911 16.847V16.846ZM73.7911 20.704C76.7271 20.704 78.1351 19.447 79.6681 15.968L84.4321 5.105H80.2261L77.9771 11.368L75.5651 5.105H71.3101L76.0081 15.535C75.4781 16.949 75.0251 17.339 73.5281 17.339H72.4501V20.704H73.7911ZM92.2951 16.846C95.7951 16.846 98.2681 14.331 98.2681 10.798C98.2681 7.265 95.7961 4.75 92.2951 4.75C91.2987 4.74223 90.32 5.01383 89.4701 5.534V1H85.6001V16.474H88.4971L88.8671 15.63C89.7901 16.401 90.9691 16.846 92.2951 16.846ZM91.7721 13.379C90.3051 13.379 89.2271 12.271 89.2271 10.799C89.2271 9.313 90.3051 8.205 91.7721 8.205C93.2381 8.205 94.3161 9.313 94.3161 10.798C94.3161 12.271 93.2291 13.378 91.7721 13.378V13.379ZM105.37 16.846C106.69 16.846 107.87 16.412 108.8 15.658L109.136 16.462H112.163V5.093H109.245L108.844 5.973C107.905 5.198 106.709 4.751 105.37 4.751C101.894 4.751 99.4101 7.256 99.4101 10.777C99.4101 14.31 101.894 16.847 105.37 16.847V16.846ZM105.894 13.379C104.427 13.379 103.349 12.271 103.349 10.786C103.349 9.311 104.419 8.203 105.894 8.203C107.361 8.203 108.439 9.311 108.439 10.786C108.439 12.271 107.361 13.379 105.894 13.379ZM118.547 16.474V10.403C118.547 8.956 119.249 8.103 120.47 8.103C121.456 8.103 121.953 8.76 121.953 10.083V16.473H125.868V9.543C125.868 6.646 124.135 4.77 121.495 4.77C120.025 4.77 118.762 5.335 117.915 6.278L117.378 5.106H114.631V16.475H118.547V16.474ZM132.295 16.474V11.666L135.143 16.474H139.759L135.857 10.524L139.4 5.105H135.003L132.295 9.559V1H128.379V16.474H132.295Z" fill="#2D314D"/>
<path fill-rule="evenodd" clip-rule="evenodd" d="M11.802 1L1 20.704H6.986L17.789 1H11.802Z" fill="url(#paint0_linear_1_464)"/>
<path opacity="0.5" fill-rule="evenodd" clip-rule="evenodd" d="M19.1712 1L8.36816 20.704H14.3542L25.1572 1H19.1712Z" fill="url(#paint1_linear_1_464)"/>
<path opacity="0.15" fill-rule="evenodd" clip-rule="evenodd" d="M26.5388 1L15.7368 20.704H21.7228L32.5248 1H26.5388Z" fill="url(#paint2_linear_1_464)"/>
</g>
<defs>
<linearGradient id="paint0_linear_1_464" x1="13.1208" y1="0.999999" x2="1.48438" y2="19.1287" gradientUnits="userSpaceOnUse">
<stop stop-color="#33D35E"/>
<stop offset="1" stop-color="#2AB6D9"/>
</linearGradient>
<linearGradient id="paint1_linear_1_464" x1="20.489" y1="0.999999" x2="8.85254" y2="19.1287" gradientUnits="userSpaceOnUse">
<stop stop-color="#33D35E"/>
<stop offset="1" stop-color="#2AB6D9"/>
</linearGradient>
<linearGradient id="paint2_linear_1_464" x1="27.8569" y1="0.999999" x2="16.2202" y2="19.1281" gradientUnits="userSpaceOnUse">
<stop stop-color="#33D35E"/>
<stop offset="1" stop-color="#2AB6D9"/>
</linearGradient>
<clipPath id="clip0_1_464">
<rect width="139" height="20" fill="white" transform="translate(1 1)"/>
</clipPath>
</defs>
</svg>
